<?xml version="1.0" encoding="UTF-8"?>
<svg version="1.1" xmlns="http://www.w3.org/2000/svg" width="600" height="153">
<path d="M0 0 C0.72996689 -0.00807175 1.45993378 -0.01614349 2.21202087 -0.02445984 C3.74898991 -0.03819366 5.28598807 -0.04896287 6.82299805 -0.05688477 C8.36345649 -0.06834819 9.903877 -0.0887098 11.4440918 -0.1184082 C28.35841528 -0.44309066 43.05633287 2.05868619 56.02734375 13.92578125 C56.70796875 14.68890625 57.38859375 15.45203125 58.08984375 16.23828125 C58.77046875 16.83640625 59.45109375 17.43453125 60.15234375 18.05078125 C68.94428743 27.97716927 69.3574824 42.63040149 69.08984375 55.23828125 C67.72389817 68.69686272 62.28897487 81.12001488 52.015625 90.0390625 C33.19927657 104.5634174 5.51883409 103.77918785 -16.91015625 101.23828125 C-17.90015625 100.90828125 -18.89015625 100.57828125 -19.91015625 100.23828125 C-21.24291569 96.24000293 -20.99398281 92.43320823 -20.93188477 88.26879883 C-20.92227722 87.35152512 -20.91266968 86.4342514 -20.902771 85.48918152 C-20.86975849 82.45364765 -20.82943461 79.41825668 -20.7890625 76.3828125 C-20.76476359 74.27960211 -20.74091992 72.17638641 -20.71751404 70.07316589 C-20.65465034 64.53453534 -20.58559009 58.99599858 -20.51525879 53.4574585 C-20.44459603 47.80696895 -20.37976674 42.15641284 -20.31445312 36.50585938 C-20.1854113 25.41659352 -20.04982609 14.32741798 -19.91015625 3.23828125 C-13.78577036 -0.09879413 -6.83997678 0.07460683 0 0 Z M4.08984375 20.23828125 C3.99588318 22.17134623 3.97240858 24.10786963 3.97631836 26.04321289 C3.97639389 27.28442398 3.97646942 28.52563507 3.97654724 29.80445862 C3.98165464 31.16911865 3.98687065 32.53377827 3.9921875 33.8984375 C3.99405175 35.28706308 3.99547562 36.67568932 3.99647522 38.0643158 C4.00029988 41.7254924 4.01012972 45.38662955 4.0211792 49.04779053 C4.03139443 52.78120388 4.03597308 56.51462359 4.04101562 60.24804688 C4.05175204 67.57814302 4.06882784 74.90820661 4.08984375 82.23828125 C6.64081645 82.28238377 9.19101569 82.31450052 11.7421875 82.33984375 C12.45870483 82.35345947 13.17522217 82.3670752 13.91345215 82.38110352 C22.45372911 82.44463633 29.34648009 79.81324298 35.625 73.93359375 C42.27916184 66.23251045 43.52935848 56.37364685 43.3359375 46.5546875 C42.69575849 37.92751319 40.65729778 31.08667097 34.08984375 25.23828125 C27.401744 20.08287103 21.4813203 18.91789501 13.27734375 19.05078125 C12.50197266 19.05142578 11.72660156 19.05207031 10.92773438 19.05273438 C7.20521609 18.73581499 7.20521609 18.73581499 4.08984375 20.23828125 Z " fill="#000000" transform="translate(46.91015625,28.76171875)"/>
<path d="M0 0 C1.62215675 0.00333092 1.62215675 0.00333092 3.27708435 0.00672913 C4.49827469 0.00680466 5.71946503 0.00688019 6.97766113 0.00695801 C8.32022644 0.0120654 9.66279134 0.01728141 11.00535583 0.02259827 C12.37156116 0.02446252 13.73776716 0.02588639 15.10397339 0.02688599 C18.70596654 0.03071058 22.30791959 0.04054035 25.90989685 0.05158997 C29.58298703 0.06180536 33.25608368 0.06638388 36.92918396 0.07142639 C44.14079081 0.08216268 51.35236459 0.09923838 58.56394958 0.12025452 C60.77754395 6.7610376 58.95223972 14.13103204 58.56394958 21.12025452 C46.02394958 21.12025452 33.48394958 21.12025452 20.56394958 21.12025452 C20.56394958 27.06025452 20.56394958 33.00025452 20.56394958 39.12025452 C32.44394958 39.12025452 44.32394958 39.12025452 56.56394958 39.12025452 C56.56394958 45.72025452 56.56394958 52.32025452 56.56394958 59.12025452 C44.68394958 59.12025452 32.80394958 59.12025452 20.56394958 59.12025452 C20.56394958 66.05025452 20.56394958 72.98025452 20.56394958 80.12025452 C33.76394958 80.12025452 46.96394958 80.12025452 60.56394958 80.12025452 C60.56394958 87.05025452 60.56394958 93.98025452 60.56394958 101.12025452 C52.36703988 101.14280877 44.17015413 101.16117147 35.97322178 101.17206669 C32.16743381 101.17729472 28.3616681 101.1843909 24.55589294 101.19569397 C20.88602414 101.20652572 17.2161768 101.21253196 13.54629326 101.21513176 C12.14319966 101.21698549 10.74010729 101.22060512 9.33702278 101.22598457 C7.37825278 101.23319871 5.41946138 101.2336626 3.4606781 101.23377991 C2.34371048 101.23600052 1.22674286 101.23822113 0.07592773 101.24050903 C-2.43605042 101.12025452 -2.43605042 101.12025452 -3.43605042 100.12025452 C-3.53670669 97.05107263 -3.57219485 94.00435176 -3.56544495 90.93470764 C-3.56719727 89.97056442 -3.56894958 89.0064212 -3.570755 88.01306152 C-3.57517534 84.80919116 -3.57223489 81.60537549 -3.56886292 78.40150452 C-3.5695359 76.18572479 -3.57050588 73.96994513 -3.57176208 71.75416565 C-3.5732393 67.10356444 -3.57108373 62.45298241 -3.56642151 57.80238342 C-3.56072421 51.82642847 -3.56400309 45.85051843 -3.56999397 39.87456512 C-3.57359893 35.29711058 -3.5724613 30.71966677 -3.56986618 26.14221191 C-3.56919673 23.93807978 -3.57002595 21.73394669 -3.57234573 19.52981567 C-3.5748712 16.4551178 -3.57103316 13.38049374 -3.56544495 10.30580139 C-3.56746918 9.3852446 -3.56949341 8.46468781 -3.57157898 7.51623535 C-3.54672606 0.17508251 -3.54672606 0.17508251 0 0 Z " fill="#000000" transform="translate(133.43605041503906,28.879745483398438)"/>
<path d="M0 0 C1.27685165 0.00222061 2.55370331 0.00444122 3.86924744 0.00672913 C4.57165054 0.0065831 5.27405365 0.00643707 5.9977417 0.00628662 C8.32985983 0.00698579 10.66189904 0.01477835 12.9940033 0.02259827 C14.60683142 0.02446243 16.21966012 0.02588634 17.83248901 0.02688599 C22.08550062 0.03071129 26.33847828 0.04054167 30.59147644 0.05158997 C34.92812135 0.06180383 39.26477171 0.06638355 43.60142517 0.07142639 C52.11641474 0.08216393 60.63137667 0.09924049 69.14634705 0.12025452 C71.42907847 13.7466857 71.42907847 13.7466857 67.3299408 20.02259827 C66.10257843 21.71664836 64.85316532 23.394909 63.58384705 25.05775452 C62.670224 26.30202209 62.670224 26.30202209 61.73814392 27.57142639 C60.50950644 29.24471363 59.27431802 30.91321077 58.03257751 32.57679749 C56.07352531 35.21844981 54.14802231 37.88007405 52.2440033 40.56166077 C51.67302917 41.36418274 51.10205505 42.16670471 50.51377869 42.99354553 C48.99456209 45.163796 48.99456209 45.163796 48.14634705 48.12025452 C47.48634705 48.12025452 46.82634705 48.12025452 46.14634705 48.12025452 C45.91173767 48.63587952 45.6771283 49.15150452 45.43540955 49.68275452 C43.69100526 52.98126444 41.60743695 56.03233421 39.52134705 59.12025452 C38.69574482 60.34936651 37.87022702 61.57853523 37.04478455 62.80775452 C36.60489197 63.4613092 36.16499939 64.11486389 35.71177673 64.78822327 C32.51058428 69.55706143 29.33027558 74.33988011 26.14634705 79.12025452 C30.82362282 79.26441844 35.50094935 79.40676274 40.17832947 79.54750061 C41.76590937 79.59551632 43.35347493 79.64400896 44.94102478 79.69300842 C46.4832915 79.74055235 48.02557871 79.78743607 49.56788635 79.83363342 C51.06758786 79.87863074 52.56724416 79.92516292 54.06684875 79.97328186 C57.92829907 80.08953236 61.75876635 80.09394237 65.6190033 79.96400452 C67.36503845 80.04134827 67.36503845 80.04134827 69.14634705 80.12025452 C71.26290334 83.29508896 71.37563853 83.78724457 71.12290955 87.35072327 C71.0455658 88.55438538 71.0455658 88.55438538 70.96665955 89.78236389 C70.90220642 90.6157428 70.8377533 91.4491217 70.77134705 92.30775452 C70.7146283 93.15273499 70.65790955 93.99771545 70.59947205 94.86830139 C70.45813881 96.95296668 70.30351455 99.03672318 70.14634705 101.12025452 C60.12406941 101.14337861 50.10179808 101.16116994 40.07949924 101.17206669 C35.42623518 101.17729537 30.77298931 101.18439275 26.11973572 101.19569397 C21.63290159 101.20652338 17.146085 101.21253146 12.65923882 101.21513176 C10.94354412 101.21698591 9.22785043 101.22060634 7.51216316 101.22598457 C5.11749792 101.23319573 2.72290609 101.23424543 0.32823181 101.23377991 C-0.74638557 101.23917282 -0.74638557 101.23917282 -1.8427124 101.24467468 C-6.73960079 101.23430668 -6.73960079 101.23430668 -7.85365295 100.12025452 C-8.74375279 92.54877239 -8.6248658 86.76941855 -3.8809967 80.67494202 C-2.87746155 79.4103717 -2.87746155 79.4103717 -1.85365295 78.12025452 C-0.07106261 75.57990044 1.65735781 73.00307873 3.39634705 70.43275452 C6.89847569 65.32553303 10.46009365 60.26669955 14.08384705 55.24525452 C19.4905063 47.74253533 24.59026854 40.03979751 29.68736267 32.32484436 C32.16354418 28.58322472 34.65525765 24.85195901 37.14634705 21.12025452 C35.4432135 21.17354919 35.4432135 21.17354919 33.70567322 21.22792053 C29.49586544 21.35822377 25.28587429 21.48140704 21.07579041 21.60243225 C19.25314121 21.65582479 17.43054763 21.71115202 15.60801697 21.76844788 C12.98940522 21.85043545 10.37067278 21.92547934 7.7518158 21.99916077 C6.93609604 22.02619583 6.12037628 22.0532309 5.27993774 22.08108521 C1.9477996 22.16913009 -0.66502873 22.18312926 -3.85365295 21.12025452 C-3.88253442 17.80777265 -3.90041095 14.49532284 -3.91615295 11.18275452 C-3.92453186 10.23722717 -3.93291077 9.29169983 -3.94154358 8.31752014 C-3.94476624 7.41839905 -3.94798889 6.51927795 -3.9513092 5.59291077 C-3.95654602 4.76025696 -3.96178284 3.92760315 -3.96717834 3.06971741 C-3.78278525 -0.09668883 -3.21108945 0.13531709 0 0 Z " fill="#000000" transform="translate(292.85365295410156,28.879745483398438)"/>
<path d="M0 0 C0.73020355 -0.00175232 1.4604071 -0.00350464 2.21273804 -0.00531006 C4.63200236 -0.00971982 7.05119389 -0.00679396 9.47045898 -0.00341797 C11.14672357 -0.00409119 12.82298807 -0.00506136 14.49925232 -0.00631714 C18.01399667 -0.00779286 21.52871563 -0.00564329 25.04345703 -0.00097656 C29.5587214 0.00472504 34.07392638 0.0014382 38.58918858 -0.00454903 C42.05059765 -0.00815427 45.51199253 -0.0070163 48.97340202 -0.00442123 C50.63885442 -0.00375209 52.30430808 -0.00457995 53.96975899 -0.00690079 C56.2923743 -0.00942719 58.614892 -0.00558713 60.9375 0 C61.63206802 -0.00202423 62.32663605 -0.00404846 63.04225159 -0.00613403 C67.78978905 0.01513085 67.78978905 0.01513085 68.90405273 1.12939453 C68.99074705 2.61811313 69.01108767 4.11083953 69.00170898 5.60205078 C68.996875 6.95073242 68.996875 6.95073242 68.99194336 8.32666016 C68.979375 9.74495117 68.979375 9.74495117 68.96655273 11.19189453 C68.96204102 12.14128906 68.9575293 13.09068359 68.95288086 14.06884766 C68.94105384 16.42242518 68.92457299 18.7758793 68.90405273 21.12939453 C66.20635015 22.47824582 64.25131899 22.14517936 61.23999023 22.00830078 C60.11850586 21.95996094 58.99702148 21.91162109 57.84155273 21.86181641 C56.66592773 21.80574219 55.49030273 21.74966797 54.27905273 21.69189453 C53.09569336 21.6396875 51.91233398 21.58748047 50.69311523 21.53369141 C47.76317712 21.40373447 44.83355601 21.26875925 41.90405273 21.12939453 C41.90627335 22.11689194 41.90849396 23.10438934 41.91078186 24.12181091 C41.93101356 33.40738482 41.94602501 42.69295428 41.95586491 51.97854519 C41.96109366 56.75287733 41.96819117 61.52719174 41.97949219 66.30151367 C41.99032133 70.90505715 41.99632962 75.50858352 41.99892998 80.11213875 C42.00078418 81.87249076 42.0044047 83.63284179 42.00978279 85.39318657 C42.01699359 87.8501173 42.01804366 90.30697648 42.01757812 92.76391602 C42.0211734 93.49902908 42.02476868 94.23414215 42.0284729 94.99153137 C42.0181049 100.01534237 42.0181049 100.01534237 40.90405273 101.12939453 C39.28147729 101.22856024 37.65465442 101.2601923 36.02905273 101.26220703 C35.04420898 101.26349609 34.05936523 101.26478516 33.04467773 101.26611328 C32.00827148 101.26224609 30.97186523 101.25837891 29.90405273 101.25439453 C28.34944336 101.26019531 28.34944336 101.26019531 26.76342773 101.26611328 C25.77858398 101.26482422 24.79374023 101.26353516 23.77905273 101.26220703 C22.86897461 101.2610791 21.95889648 101.25995117 21.02124023 101.25878906 C18.90405273 101.12939453 18.90405273 101.12939453 17.90405273 100.12939453 C17.80904725 97.66495397 17.77847288 95.22864827 17.79052734 92.76391602 C17.79038132 91.99323792 17.79023529 91.22255981 17.79008484 90.42852783 C17.79078413 87.86915314 17.79857728 85.30985033 17.80639648 82.75048828 C17.80826061 80.98071838 17.80968454 79.21094797 17.8106842 77.44117737 C17.81450985 72.77388087 17.82434053 68.1066153 17.83538818 63.43933105 C17.8456013 58.68042418 17.85018161 53.92151232 17.85522461 49.16259766 C17.86596276 39.81818082 17.88355994 30.47379508 17.90405273 21.12939453 C8.99405273 21.12939453 0.08405273 21.12939453 -9.09594727 21.12939453 C-9.09594727 14.52939453 -9.09594727 7.92939453 -9.09594727 1.12939453 C-6.16386358 -0.33664731 -3.21341689 -0.00939247 0 0 Z " fill="#000000" transform="translate(211.095947265625,28.87060546875)"/>
<path d="M0 0 C3.65961986 2.070088 5.16732864 4.36388234 6.5625 8.375 C6.5625 9.035 6.5625 9.695 6.5625 10.375 C7.573125 10.25125 8.58375 10.1275 9.625 10 C14.77421787 10.4904017 17.14109501 12.64431546 20.5625 16.375 C22.54391781 20.33783561 22.12070645 25.06710238 21.5625 29.375 C19.91801311 32.55352316 17.80646473 34.75301764 14.5625 36.375 C8.78557841 36.66102206 3.00745391 36.68883544 -2.77587891 36.72509766 C-4.70992074 36.74163902 -6.6439019 36.76890506 -8.57763672 36.80712891 C-11.36978793 36.86202673 -14.16050604 36.88379232 -16.953125 36.8984375 C-17.81270813 36.92110687 -18.67229126 36.94377625 -19.55792236 36.96713257 C-23.82558806 36.95218924 -26.57112982 36.71190902 -29.94433594 33.95947266 C-33.33723814 30.44231023 -34.29901044 28.87068728 -34.75 24 C-34.40343791 19.97987981 -33.61630211 17.75589982 -31.4375 14.375 C-30.65375 13.75625 -29.87 13.1375 -29.0625 12.5 C-26.52475986 10.44563893 -25.61741057 9.14724187 -24.0625 6.375 C-18.73146128 -2.47155341 -9.28060523 -4.06026479 0 0 Z M-19.0625 18.875 C-19.51625 19.37 -19.97 19.865 -20.4375 20.375 C-20.1075 21.365 -19.7775 22.355 -19.4375 23.375 C-18.1175 21.395 -16.7975 19.415 -15.4375 17.375 C-17.56114481 17.14890663 -17.56114481 17.14890663 -19.0625 18.875 Z M-1.4375 17.375 C-0.7775 18.035 -0.1175 18.695 0.5625 19.375 C0.5625 18.715 0.5625 18.055 0.5625 17.375 C-0.0975 17.375 -0.7575 17.375 -1.4375 17.375 Z M-8.4375 18.375 C-9.4275 20.355 -10.4175 22.335 -11.4375 24.375 C-10.4475 24.045 -9.4575 23.715 -8.4375 23.375 C-8.1075 21.725 -7.7775 20.075 -7.4375 18.375 C-7.7675 18.375 -8.0975 18.375 -8.4375 18.375 Z M0.5625 19.375 C0.418125 20.15875 0.27375 20.9425 0.125 21.75 C-0.4375 24.375 -0.4375 24.375 -1.4375 26.375 C0.5787233 25.65936734 0.5787233 25.65936734 2.5625 24.375 C3.36778889 22.32499129 3.36778889 22.32499129 3.5625 20.375 C2.5725 20.045 1.5825 19.715 0.5625 19.375 Z M-19.4375 23.375 C-18.4475 24.86 -18.4475 24.86 -17.4375 26.375 C-16.7775 26.045 -16.1175 25.715 -15.4375 25.375 C-16.7575 24.715 -18.0775 24.055 -19.4375 23.375 Z " fill="#010101" transform="translate(460.4375,28.625)"/>
<path d="M0 0 C1.12651474 0.00303635 1.12651474 0.00303635 2.27578735 0.00613403 C3.42828476 0.00469894 3.42828476 0.00469894 4.60406494 0.00323486 C6.23324668 0.00255296 7.86243112 0.00440793 9.49160767 0.00857544 C11.9848341 0.01390906 14.47787917 0.00863836 16.97109985 0.00222778 C18.55182942 0.00288885 20.13255887 0.0041706 21.71328735 0.00613403 C22.46024872 0.0041098 23.20721008 0.00208557 23.97680664 0 C27.12926518 0.01425133 29.61391185 0.1344672 32.62734985 1.13894653 C33.83470187 8.36517191 33.53876905 15.33971745 33.18984985 22.63894653 C33.13764282 23.84293091 33.08543579 25.04691528 33.03164673 26.28738403 C32.90284025 29.23822347 32.76791616 32.18864784 32.62734985 35.13894653 C27.23387997 35.16359503 21.8404426 35.18178184 16.44692993 35.19387817 C14.61066111 35.19891885 12.77439631 35.2057513 10.93814087 35.21438599 C8.30458584 35.22646326 5.67108369 35.23217734 3.0375061 35.23660278 C1.79844261 35.24434471 1.79844261 35.24434471 0.53434753 35.25224304 C-1.43501382 35.25243858 -3.40426628 35.20098805 -5.37265015 35.13894653 C-7.07757896 33.43401772 -6.50069435 31.29360393 -6.51159668 29.01992798 C-6.50957245 28.3063916 -6.50754822 27.59285522 -6.50546265 26.85769653 C-6.50641937 26.12901367 -6.5073761 25.40033081 -6.50836182 24.64956665 C-6.5090435 23.10614943 -6.50719002 21.56272936 -6.50302124 20.01931763 C-6.49767277 17.64897254 -6.50296657 15.27881694 -6.5093689 12.90847778 C-6.50870811 11.41238361 -6.50742695 9.91628956 -6.50546265 8.42019653 C-6.50748688 7.70666016 -6.50951111 6.99312378 -6.51159668 6.25796509 C-6.48231281 0.1508275 -6.0794248 0.02773404 0 0 Z M9.62734985 18.13894653 C9.62734985 21.43894653 9.62734985 24.73894653 9.62734985 28.13894653 C13.0529407 26.93536056 15.15993595 25.78002007 17.62734985 23.13894653 C16.48358626 22.30277471 15.33727846 21.47008194 14.18984985 20.63894653 C13.55176392 20.17488403 12.91367798 19.71082153 12.2562561 19.23269653 C10.81598953 18.04603757 10.81598953 18.04603757 9.62734985 18.13894653 Z " fill="#010101" transform="translate(545.3726501464844,28.861053466796875)"/>
<path d="M0 0 C5.3748019 2.84130497 8.87150689 7.03293674 11.2109375 12.5625 C12.34517893 19.36794857 12.18966727 24.99631702 8.0859375 30.75 C5.3637302 34.18141394 2.40685703 36.90849836 -2.06103516 37.6105957 C-4.24964444 37.7518702 -6.40868883 37.77095709 -8.6015625 37.75 C-9.33955078 37.76998047 -10.07753906 37.78996094 -10.83789062 37.81054688 C-16.04971549 37.80591414 -19.08404178 36.80793872 -23.1640625 33.3125 C-26.88616295 28.30064846 -28.99162375 22.74222069 -28.58203125 16.4765625 C-27.24693577 9.56401205 -23.79890411 5.30384614 -18.1640625 1.3125 C-12.88680832 -1.89679376 -5.80783517 -1.84508843 0 0 Z " fill="#020202" transform="translate(520.1640625,27.6875)"/>
<path d="M0 0 C1.19496094 -0.00386719 1.19496094 -0.00386719 2.4140625 -0.0078125 C4.375 0.125 4.375 0.125 5.375 1.125 C6.13425781 1.07988281 6.89351563 1.03476562 7.67578125 0.98828125 C12.43617599 1.2294011 15.27254998 4.75064987 18.375 8.125 C19.875 11.0625 19.875 11.0625 20.375 13.125 C19.375 14.125 19.375 14.125 17.56494141 14.23852539 C16.79327637 14.23328857 16.02161133 14.22805176 15.2265625 14.22265625 C14.38609375 14.21943359 13.545625 14.21621094 12.6796875 14.21289062 C11.79539062 14.20451172 10.91109375 14.19613281 10 14.1875 C8.68515625 14.18073242 8.68515625 14.18073242 7.34375 14.17382812 C5.71043566 14.16508715 4.07713015 14.1543013 2.44384766 14.14086914 C0.75427319 14.12790922 -0.93537583 14.125 -2.625 14.125 C-3.285 15.445 -3.945 16.765 -4.625 18.125 C-5.615 18.125 -6.605 18.125 -7.625 18.125 C-7.13 18.888125 -6.635 19.65125 -6.125 20.4375 C-4.625 23.125 -4.625 23.125 -4.625 26.125 C-3.490625 26.41375 -2.35625 26.7025 -1.1875 27 C-0.011875 27.37125 1.16375 27.7425 2.375 28.125 C2.705 28.785 3.035 29.445 3.375 30.125 C4.21698307 29.02741493 5.04830671 27.92164683 5.875 26.8125 C6.57109375 25.89017578 6.57109375 25.89017578 7.28125 24.94921875 C9.29608034 21.58876958 8.13667517 18.93337586 7.375 15.125 C11.995 15.125 16.615 15.125 21.375 15.125 C22.83781601 22.14651683 22.13404251 27.73401387 18.25 33.875 C14.75442217 38.35179266 10.40473702 40.56986185 4.859375 41.5859375 C2.69491742 41.8377769 0.5512347 42.02424839 -1.625 42.125 C-1.955 41.465 -2.285 40.805 -2.625 40.125 C-3.615 40.62 -3.615 40.62 -4.625 41.125 C-10.5534674 39.42924469 -14.11453962 35.86772691 -17.69140625 31.02734375 C-18.625 29.125 -18.625 29.125 -17.625 26.125 C-18.285 26.125 -18.945 26.125 -19.625 26.125 C-19.95778764 19.30901613 -19.86701565 14.20377934 -16.625 8.125 C-15.635 8.125 -14.645 8.125 -13.625 8.125 C-13.625 7.135 -13.625 6.145 -13.625 5.125 C-9.10132218 1.70711009 -5.65353368 -0.01841542 0 0 Z M2.375 4.125 C3.375 6.125 3.375 6.125 3.375 6.125 Z M0.375 7.125 C1.375 9.125 1.375 9.125 1.375 9.125 Z M-0.625 9.125 C0.375 11.125 0.375 11.125 0.375 11.125 Z M-10.625 13.125 C-9.625 15.125 -9.625 15.125 -9.625 15.125 Z M-9.625 15.125 C-9.295 16.115 -8.965 17.105 -8.625 18.125 C-8.625 17.135 -8.625 16.145 -8.625 15.125 C-8.955 15.125 -9.285 15.125 -9.625 15.125 Z M10.375 24.125 C11.375 26.125 11.375 26.125 11.375 26.125 Z M13.375 29.125 C14.375 31.125 14.375 31.125 14.375 31.125 Z M1.375 31.125 C2.375 33.125 2.375 33.125 2.375 33.125 Z M0.375 33.125 C1.375 35.125 1.375 35.125 1.375 35.125 Z " fill="#020202" transform="translate(393.625,26.875)"/>
<path d="M0 0 C1.65 0 3.3 0 5 0 C5 5.94 5 11.88 5 18 C8.96 16.515 8.96 16.515 13 15 C17.89592886 14.55617642 22.46831997 15.14413367 26.4375 18.1875 C31.85575636 24.13436674 32.54452775 28.90531728 32.35546875 36.80078125 C31.65631191 43.09319278 28.93347216 47.99155387 24 52 C20.69417011 54.03604092 18.16670624 54.24291996 14.3125 54.1875 C13.33925781 54.18105469 12.36601562 54.17460937 11.36328125 54.16796875 C8.64334144 54.03212971 5.99270013 53.79792634 3.28979492 53.48950195 C2.48483078 53.39820511 1.67986664 53.30690826 0.85050964 53.21284485 C0.23984146 53.14260605 -0.37082672 53.07236725 -1 53 C-1.02526692 45.61271898 -1.0428316 38.22544902 -1.05493164 30.83813477 C-1.05997363 28.32283105 -1.06680703 25.80753028 -1.07543945 23.29223633 C-1.08751094 19.68570225 -1.09322949 16.07920677 -1.09765625 12.47265625 C-1.10281754 11.34038101 -1.10797882 10.20810577 -1.11329651 9.04151917 C-1.11337204 8.00051559 -1.11344757 6.95951202 -1.11352539 5.88696289 C-1.115746 4.96540909 -1.11796661 4.04385529 -1.12025452 3.09437561 C-1 1 -1 1 0 0 Z M4 25 C3.78254222 27.297947 3.78254222 27.297947 3.953125 29.9375 C3.99566406 30.91460937 4.03820312 31.89171875 4.08203125 32.8984375 C4.13746094 33.92195313 4.19289063 34.94546875 4.25 36 C4.28996094 37.02351563 4.32992188 38.04703125 4.37109375 39.1015625 C4.29956948 44.6012866 4.29956948 44.6012866 7 49 C12.98158084 50.31797544 16.55529208 50.24588357 22 47 C25.82639967 42.87151615 26.75592253 38.93315334 27.1015625 33.46875 C26.91170508 28.85375415 25.43537678 25.59486309 22.3125 22.125 C15.35457127 18.7400617 9.49996019 19.50003981 4 25 Z " fill="#020202" transform="translate(489,74)"/>
<path d="M0 0 C4.20395899 4.94982268 4.55019295 8.62344062 4.3125 14.8125 C4.29703125 15.60769043 4.2815625 16.40288086 4.265625 17.22216797 C4.13526335 22.52462823 3.7777558 27.75014836 3 33 C3.66 33.33 4.32 33.66 5 34 C4.01 34.66 3.02 35.32 2 36 C1.195625 35.67 0.39125 35.34 -0.4375 35 C-1.7059375 34.505 -1.7059375 34.505 -3 34 C-4.34914043 34.63406807 -5.68110631 35.30520388 -7 36 C-11.5062824 37.08970102 -14.98992576 37.37410157 -19.375 35.75 C-20.674375 34.88375 -20.674375 34.88375 -22 34 C-22.598125 33.608125 -23.19625 33.21625 -23.8125 32.8125 C-25.82070322 29.74734771 -26.20334865 26.57500046 -26 23 C-24.63984889 18.45115027 -22.72852853 16.3973792 -18.5625 14.125 C-12.78769544 12.30137751 -8.02348888 11.89790697 -2 12 C-2.66 9.69 -3.32 7.38 -4 5 C-11.04335384 3.03709811 -16.77466796 3.00060828 -24 4 C-23.67 2.35 -23.34 0.7 -23 -1 C-14.96896808 -3.73396831 -7.59075137 -4.46514787 0 0 Z M-19 21 C-19.98965019 23.96895056 -20.23779528 25.9086614 -20 29 C-17.41784328 31.58215672 -16.27296873 31.29794465 -12.6875 31.3125 C-9.5158123 31.22092896 -6.89672209 30.97367426 -3.8125 30.1875 C-0.68354835 26.41117904 -1.6410964 21.6976493 -2 17 C-8.40508456 16.46624295 -13.74297849 16.99018002 -19 21 Z " fill="#020202" transform="translate(555,92)"/>
<path d="M0 0 C0.99 0.66 1.98 1.32 3 2 C2.67 3.32 2.34 4.64 2 6 C0.515 5.93039063 0.515 5.93039063 -1 5.859375 C-11.64679457 5.42353722 -11.64679457 5.42353722 -21 10 C-25.4160296 14.5322409 -27.28539223 19.0679244 -27.3125 25.375 C-27.17441303 31.79604393 -25.86706121 35.65283734 -21.8125 40.75 C-14.9511175 46.239106 -8.58876294 46.32207861 0 46 C0 40.39 0 34.78 0 29 C1.65 28.67 3.3 28.34 5 28 C5.92188461 30.76565382 6.11785222 32.38283702 6.09765625 35.23046875 C6.09443359 36.03291016 6.09121094 36.83535156 6.08789062 37.66210938 C6.07532227 38.91217773 6.07532227 38.91217773 6.0625 40.1875 C6.05798828 41.03248047 6.05347656 41.87746094 6.04882812 42.74804688 C6.03705403 44.83206155 6.0191189 46.91603977 6 49 C0.3051151 52.73680112 -8.4355161 51.63981325 -15 51 C-21.49256611 49.46412415 -25.74105016 46.02337673 -30 41 C-30 40.34 -30 39.68 -30 39 C-30.66 38.67 -31.32 38.34 -32 38 C-34.26534393 29.8739921 -34.23108027 20.51103372 -30.24609375 12.99609375 C-29.83488281 12.33738281 -29.42367188 11.67867187 -29 11 C-28.59910156 10.35160156 -28.19820313 9.70320313 -27.78515625 9.03515625 C-21.43289497 0.32611397 -10.14631281 -1.34657855 0 0 Z " fill="#010101" transform="translate(410,77)"/>
<path d="M0 0 C4.11104014 2.90780888 6.67076117 5.8307667 7.5625 10.8125 C7.68110998 13.10194841 7.73767481 15.39501435 7.75 17.6875 C7.76417969 18.88117188 7.77835937 20.07484375 7.79296875 21.3046875 C7.56254992 24.81174022 6.82529461 27.54820089 5.5625 30.8125 C4.9025 30.8125 4.2425 30.8125 3.5625 30.8125 C3.335625 31.410625 3.10875 32.00875 2.875 32.625 C1.09340754 35.59432076 -0.24394061 36.41531777 -3.4375 37.8125 C-9.77768823 39.22023671 -14.76468693 39.37191212 -20.4375 35.8125 C-25.8199454 29.88481987 -26.72123132 24.71180065 -26.6640625 16.83203125 C-26.27156827 11.60103051 -24.33826044 8.16364066 -21.4375 3.8125 C-20.7775 3.8125 -20.1175 3.8125 -19.4375 3.8125 C-19.4375 3.1525 -19.4375 2.4925 -19.4375 1.8125 C-14.15595803 -2.92267556 -6.29993873 -2.17634247 0 0 Z M-17.4375 5.8125 C-21.41283252 10.98043228 -22.09680922 16.39921941 -21.4375 22.8125 C-19.82520849 27.90394687 -18.17672163 31.1795991 -13.4375 33.8125 C-9.49855632 34.51559745 -6.35833759 34.16037198 -2.625 32.75 C1.141845 29.41365157 2.29832008 26.00326034 2.8828125 21.15625 C3.14344048 14.83167771 2.52106433 10.81279178 -1.4375 5.8125 C-7.60389038 1.91131425 -11.05220944 2.50583168 -17.4375 5.8125 Z " fill="#010101" transform="translate(469.4375,90.1875)"/>
<path d="M0 0 C1.98 0 3.96 0 6 0 C6 17.49 6 34.98 6 53 C4.02 53 2.04 53 0 53 C0 35.51 0 18.02 0 0 Z " fill="#010101" transform="translate(426,74)"/>
<path d="M0 0 C0 17.49 0 34.98 0 53 C-2.475 53.495 -2.475 53.495 -5 54 C-6.83982899 50.8557224 -7.24536016 48.58131211 -7.22705078 44.95605469 C-7.22682419 43.45495148 -7.22682419 43.45495148 -7.22659302 41.92352295 C-7.21627045 40.85047913 -7.20594788 39.7774353 -7.1953125 38.671875 C-7.1924826 37.56773254 -7.18965271 36.46359009 -7.18673706 35.32598877 C-7.17554489 31.8005488 -7.15044175 28.27536315 -7.125 24.75 C-7.11496897 22.35937867 -7.10584333 19.96875336 -7.09765625 17.578125 C-7.0756087 11.71866327 -7.04214053 5.85934981 -7 0 C-5 -1 -5 -1 0 0 Z " fill="#020202" transform="translate(576,74)"/>
<path d="M0 0 C0.66 0.33 1.32 0.66 2 1 C2 5.29 2 9.58 2 14 C0.68 14 -0.64 14 -2 14 C-2 13.34 -2 12.68 -2 12 C-1.34 12 -0.68 12 0 12 C0 8.04 0 4.08 0 0 Z " fill="#0A0809" transform="translate(190,36)"/>
<path d="" fill="#000000" transform="translate(0,0)"/>
<path d="" fill="#000000" transform="translate(0,0)"/>
<path d="" fill="#000000" transform="translate(0,0)"/>
<path d="" fill="#000000" transform="translate(0,0)"/>
<path d="" fill="#000000" transform="translate(0,0)"/>
<path d="" fill="#000000" transform="translate(0,0)"/>
<path d="" fill="#000000" transform="translate(0,0)"/>
<path d="" fill="#000000" transform="translate(0,0)"/>
</svg>
